<svg width="32" height="32" viewBox="0 0 32 32" fill="none" xmlns="http://www.w3.org/2000/svg">
<rect width="32" height="32" rx="6" fill="#33DDB3"/>
<path d="M7.97803 10.1725C8.14636 10.06 8.34427 10 8.54673 10C8.81804 10 9.07824 10.1077 9.27016 10.2995C9.46208 10.4912 9.57001 10.7514 9.57023 11.0227C9.57039 11.2251 9.51051 11.4231 9.39814 11.5915C9.28578 11.7599 9.12599 11.8912 8.93899 11.9688C8.75198 12.0464 8.54617 12.0668 8.34757 12.0274C8.14898 11.988 7.96653 11.8906 7.82331 11.7475C7.68009 11.6044 7.58253 11.422 7.54297 11.2235C7.50341 11.0249 7.52363 10.8191 7.60107 10.632C7.67851 10.4449 7.8097 10.285 7.97803 10.1725Z" fill="#1D3944"/>
<path d="M4 10.1088H5.8285V21.172H4V10.1088Z" fill="#1D3944"/>
<path d="M28.725 13.274C28.0911 14.6326 27.3438 15.9354 26.4911 17.1686L29 21.1662H26.84L25.2981 18.6997C23.7488 20.4659 22.2144 21.3299 20.7348 21.3299C18.9329 21.3299 18.196 20.0422 18.196 18.5759C18.196 18.227 18.201 17.7982 18.201 17.5292C18.201 15.5968 17.9974 15.0535 17.3453 15.1366C16.0917 15.3052 14.1892 18.1589 12.9498 21.1662H11.2301V13.274H13.0577V17.2226C14.1012 15.4631 15.0549 13.9552 16.5935 13.3737C17.4882 13.0339 18.24 13.1818 18.6321 13.3546C20.0502 13.9802 20.0478 15.5063 20.0286 17.5524C20.0237 17.8224 20.0237 18.1115 20.0237 18.4206C20.0237 19.1624 20.2289 19.4881 20.734 19.5379C21.0347 19.5637 21.3361 19.497 21.5979 19.3469V10.1088H23.4256V18.026C23.4256 18.026 25.0107 16.5763 26.6872 13.274H28.725Z" fill="#1D3944"/>
<path d="M9.46058 13.2782H7.63208V21.1729H9.46058V13.2782Z" fill="#1D3944"/>
</svg>
