<svg width="24" height="16" viewBox="0 0 24 16" fill="none" xmlns="http://www.w3.org/2000/svg">
<path fill-rule="evenodd" clip-rule="evenodd" d="M14.1046 13.3254L13.9615 13.988H7.9098L8.19411 12.6774C8.35288 11.9429 8.62795 11.462 9.02303 11.234C9.41718 11.0069 10.2738 10.8311 11.5929 10.7086C12.647 10.6143 13.3006 10.4849 13.5498 10.3211C13.8018 10.1583 14.0003 9.73571 14.148 9.05257C14.2772 8.45343 14.2421 8.06514 14.04 7.88686C13.8378 7.70857 13.3338 7.61857 12.5252 7.61857C11.5153 7.61857 10.8636 7.69143 10.5683 7.83629C10.271 7.98029 10.0633 8.32829 9.94518 8.87857L9.84364 9.39886H8.91503L8.99995 9.03714C9.17995 8.204 9.51226 7.64857 9.99688 7.37171C10.4824 7.09486 11.363 6.956 12.6387 6.956C13.7704 6.956 14.5006 7.106 14.8255 7.40429C15.1504 7.70429 15.2187 8.28714 15.0313 9.15371C14.8513 9.98686 14.5504 10.544 14.1267 10.8243C13.7021 11.1037 12.8723 11.294 11.6363 11.3926C10.5507 11.4809 9.88795 11.6034 9.64888 11.7594C9.40888 11.9163 9.21134 12.3594 9.05349 13.0906L9.00272 13.3254H14.1046ZM22.0643 7.04L21.0489 11.7311H22.3061L22.1621 12.3937H20.9067L20.5578 14H19.6116L19.9587 12.3937H15.2584L15.4569 11.4714L20.6012 7.04H22.0661H22.0643ZM20.1018 11.7311L21.0073 7.54486H20.9889L16.1815 11.7311H20.1018ZM5.66949 4.4L4.73534 3.85657C5.83657 3.39371 6.98488 3.01657 8.16641 2.73286L8.33811 3.47429C7.49349 3.68514 6.60272 3.98686 5.67041 4.40086L5.66949 4.4ZM16.2673 3.99286C15.3996 3.60543 14.4692 3.33286 13.5064 3.18029L14.2606 2H14.2818C16.4621 2.00857 18.1956 2.24943 19.5618 2.58543L16.2673 3.99457V3.99286ZM3.88611 4.23714L4.84057 4.80457C4.4058 5.02486 3.96088 5.26829 3.50857 5.53914H1.65503C1.65503 5.53914 2.42118 4.94086 3.88426 4.23714H3.88611ZM13.1409 2.04029L12.6941 3.08686C11.4539 2.97967 10.2033 3.05196 8.98703 3.30114L8.85964 2.552C10.2627 2.26057 11.6972 2.09 13.1409 2.04029ZM21.3009 3.098C23.2753 3.86 24 4.72657 24 4.72657H17.6123C17.6123 4.72657 17.4018 4.56629 17.004 4.34257L21.3009 3.098Z" fill="#99A0A6"/>
<path fill-rule="evenodd" clip-rule="evenodd" d="M0 13.9743L1.52862 6.95514H5.46923C6.43938 6.95514 7.06892 7.10771 7.35508 7.41285C7.64123 7.718 7.69385 8.28885 7.512 9.12542C7.33662 9.92771 7.03385 10.4746 6.60277 10.7651C6.17169 11.0566 5.44892 11.2023 4.43723 11.2023L4.05785 11.2074H1.57385L0.971077 13.9743H0ZM1.71877 10.5397H4.02C4.98185 10.5397 5.61692 10.4591 5.92338 10.298C6.22985 10.1369 6.44585 9.76657 6.57138 9.18714C6.71908 8.50828 6.72185 8.07885 6.57785 7.89885C6.43385 7.71885 6.02031 7.62885 5.33446 7.62885L4.96431 7.62371H2.35385L1.71877 10.5397Z" fill="#D13239"/>
</svg>
