<svg width="24" height="16" viewBox="0 0 24 16" fill="none" xmlns="http://www.w3.org/2000/svg">
<path d="M21.9574 0H2.04255C0.914482 0 0 0.924315 0 2.06452V13.9355C0 15.0757 0.914482 16 2.04255 16H21.9574C23.0855 16 24 15.0757 24 13.9355V2.06452C24 0.924315 23.0855 0 21.9574 0Z" fill="white"/>
<path d="M2.04255 0.25H21.9574C22.9449 0.25 23.75 1.05986 23.75 2.06452V13.9355C23.75 14.9401 22.9449 15.75 21.9574 15.75H2.04255C1.05507 15.75 0.25 14.9401 0.25 13.9355V2.06452C0.25 1.05986 1.05507 0.25 2.04255 0.25Z" stroke="black" stroke-opacity="0.2" stroke-width="0.5"/>
<path d="M2.5917 5.84726C2.05743 5.55107 1.44767 5.31286 0.76593 5.14755L0.794526 5.01881H3.58974C3.96862 5.03223 4.27605 5.14746 4.37609 5.55438L4.98356 8.48174L5.16966 9.36342L6.87109 5.01881H8.70818L5.97738 11.3833H4.14019L2.5917 5.84726ZM10.0595 11.3901H8.32218L9.40884 5.01881H11.1461L10.0595 11.3901ZM16.3575 5.17457L16.1213 6.55038L15.9641 6.48272C15.6498 6.3539 15.2348 6.22516 14.67 6.23877C13.9841 6.23877 13.6764 6.5165 13.6693 6.78766C13.6693 7.08594 14.0414 7.28251 14.6491 7.57403C15.65 8.02816 16.1143 8.5839 16.1074 9.30919C16.0933 10.6309 14.9065 11.4851 13.0836 11.4851C12.3042 11.4782 11.5535 11.322 11.146 11.146L11.3891 9.71575L11.6179 9.81755C12.1827 10.055 12.5543 10.1565 13.248 10.1565C13.7482 10.1565 14.2845 9.95971 14.2913 9.53288C14.2913 9.25496 14.0628 9.05145 13.3907 8.73966C12.733 8.43454 11.8538 7.92627 11.868 7.01117C11.8754 5.77086 13.0836 4.90332 14.7993 4.90332C15.4713 4.90332 16.0149 5.04566 16.3575 5.17457ZM18.6666 9.13298H20.1107C20.0392 8.81444 19.7102 7.28936 19.7102 7.28936L19.5888 6.74037C19.503 6.97757 19.353 7.36395 19.3602 7.35035C19.3602 7.35035 18.8097 8.76696 18.6666 9.13298ZM20.8111 5.01881L22.2127 11.39H20.6041C20.6041 11.39 20.4467 10.658 20.3968 10.4343H18.1662C18.1017 10.6036 17.8016 11.39 17.8016 11.39H15.9787L18.5593 5.54744C18.7381 5.13394 19.0529 5.01881 19.4673 5.01881H20.8111Z" fill="#1434CB"/>
</svg>
